<?xml version="1.0" encoding="utf-8"?>
<!-- Generator: Adobe Illustrator 27.9.1, SVG Export Plug-In . SVG Version: 6.00 Build 0)  -->
<svg version="1.1" xmlns="http://www.w3.org/2000/svg" xmlns:xlink="http://www.w3.org/1999/xlink" x="0px" y="0px"
	 viewBox="0 0 463.4 143.9" style="enable-background:new 0 0 463.4 143.9;" xml:space="preserve">
<style type="text/css">
	.st0{fill:#B857DE;fill-opacity:0.76;}
	.st1{fill:none;stroke:#000000;stroke-width:10;stroke-linecap:round;stroke-miterlimit:10;}
</style>
<g id="Capa_5">
	<circle class="st0" cx="56.6" cy="72.3" r="30.3"/>
</g>
<g id="Capa_1">
	<path class="st1" d="M79.7,61.4c0-5.9-4.8-10.7-10.7-10.7c-5.9,0-10.7,4.8-10.7,10.7"/>
	<g>
		<line class="st1" x1="79.7" y1="61.1" x2="79.7" y2="93.7"/>
	</g>
</g>
<g id="Capa_3">
	<circle class="st1" cx="68.9" cy="82.2" r="10.7"/>
</g>
<g id="Capa_2">
	<path class="st1" d="M82.6,61.5c0-5.9,4.8-10.7,10.7-10.7s10.7,4.8,10.7,10.7"/>
	<g>
		<line class="st1" x1="82.6" y1="61.1" x2="82.6" y2="93.8"/>
	</g>
	<line class="st1" x1="82.6" y1="72.3" x2="93.4" y2="72.3"/>
</g>
<g id="Capa_4">
	<g>
		<path d="M117.8,89.1V55.5h12.6c2.8,0,5.3,0.5,7.3,1.4s3.6,2.2,4.7,3.9c1.1,1.7,1.7,3.8,1.7,6.2c0,2.4-0.6,4.4-1.7,6.1
			c-1.1,1.7-2.7,3-4.7,4c-2,0.9-4.5,1.4-7.3,1.4h-10.6l1.6-1.7v12.3H117.8z M121.4,77.1l-1.6-1.7h10.5c3.4,0,5.9-0.7,7.7-2.2
			c1.7-1.5,2.6-3.5,2.6-6.2c0-2.7-0.9-4.8-2.6-6.2c-1.7-1.5-4.3-2.2-7.7-2.2h-10.5l1.6-1.7V77.1z"/>
		<path d="M151.8,89.1V55.5h3.6v33.6H151.8z"/>
		<path d="M180.9,89.4c-2.5,0-4.9-0.4-7-1.3c-2.1-0.8-4-2-5.6-3.6c-1.6-1.5-2.8-3.3-3.7-5.4c-0.9-2.1-1.3-4.4-1.3-6.8
			s0.4-4.7,1.3-6.8c0.9-2.1,2.1-3.9,3.7-5.4s3.4-2.7,5.6-3.6c2.1-0.8,4.5-1.3,7-1.3c2.4,0,4.7,0.4,6.9,1.2c2.1,0.8,4,2,5.4,3.7
			l-2.3,2.3c-1.4-1.4-2.9-2.4-4.6-3c-1.7-0.6-3.5-0.9-5.4-0.9c-2,0-3.9,0.3-5.6,1c-1.7,0.7-3.2,1.7-4.5,2.9c-1.3,1.3-2.3,2.7-3,4.4
			c-0.7,1.7-1.1,3.5-1.1,5.5c0,2,0.4,3.9,1.1,5.5c0.7,1.7,1.7,3.2,3,4.4c1.3,1.3,2.8,2.2,4.5,2.9c1.7,0.7,3.6,1,5.6,1
			c1.9,0,3.7-0.3,5.4-1c1.7-0.6,3.2-1.7,4.6-3.1l2.3,2.3c-1.5,1.6-3.3,2.9-5.4,3.7C185.7,89,183.4,89.4,180.9,89.4z"/>
		<path d="M206.9,89.1V58.6h-11.8v-3.1h27.2v3.1h-11.8v30.5H206.9z"/>
		<path d="M240.8,89.4c-4.3,0-7.7-1.2-10.1-3.7c-2.5-2.5-3.7-6.1-3.7-10.9V55.5h3.6v19.1c0,4,0.9,6.9,2.7,8.8s4.3,2.8,7.6,2.8
			c3.3,0,5.8-0.9,7.6-2.8s2.7-4.8,2.7-8.8V55.5h3.5v19.2c0,4.8-1.2,8.5-3.7,10.9C248.5,88.2,245.1,89.4,240.8,89.4z"/>
		<path d="M265.3,89.1V55.5h12.6c2.8,0,5.3,0.5,7.3,1.4s3.6,2.2,4.7,3.9c1.1,1.7,1.7,3.8,1.7,6.2c0,2.4-0.6,4.4-1.7,6.1
			c-1.1,1.7-2.7,3-4.7,3.9s-4.5,1.4-7.3,1.4h-10.6l1.6-1.6v12.3H265.3z M268.8,77.1l-1.6-1.7h10.5c3.4,0,5.9-0.7,7.7-2.2
			c1.7-1.5,2.6-3.5,2.6-6.2c0-2.7-0.9-4.8-2.6-6.2c-1.7-1.5-4.3-2.2-7.7-2.2h-10.5l1.6-1.7V77.1z M288.2,89.1l-8.6-12.2h3.8
			l8.7,12.2H288.2z"/>
		<path d="M303.5,86h20.2v3.1H300V55.5h23v3.1h-19.5V86z M303.2,70.5h17.8v3h-17.8V70.5z"/>
		<path d="M341.4,89.4c-2.5,0-4.9-0.4-7.2-1.2c-2.3-0.8-4.1-1.9-5.3-3.1l1.4-2.7c1.2,1.2,2.8,2.1,4.8,2.9s4.1,1.2,6.3,1.2
			c2.1,0,3.8-0.3,5.2-0.8c1.3-0.5,2.3-1.2,2.9-2.1c0.6-0.9,0.9-1.9,0.9-3c0-1.3-0.4-2.4-1.1-3.2c-0.8-0.8-1.7-1.4-3-1.9
			s-2.6-0.9-4-1.2c-1.5-0.4-2.9-0.7-4.4-1.1c-1.5-0.4-2.8-0.9-4.1-1.6c-1.2-0.7-2.2-1.6-3-2.7c-0.8-1.1-1.1-2.6-1.1-4.3
			c0-1.7,0.4-3.2,1.3-4.6c0.9-1.4,2.2-2.5,4.1-3.4c1.8-0.8,4.2-1.3,7-1.3c1.9,0,3.8,0.3,5.6,0.8c1.9,0.5,3.5,1.3,4.8,2.2l-1.2,2.8
			c-1.4-1-3-1.7-4.6-2.1c-1.6-0.4-3.2-0.7-4.7-0.7c-2,0-3.7,0.3-5,0.8c-1.3,0.5-2.3,1.3-2.9,2.2s-0.9,1.9-0.9,3.1
			c0,1.3,0.4,2.4,1.1,3.2c0.8,0.8,1.7,1.4,3,1.9c1.2,0.4,2.6,0.8,4.1,1.2c1.5,0.4,2.9,0.7,4.4,1.2s2.8,1,4,1.6
			c1.2,0.7,2.2,1.5,3,2.6c0.8,1.1,1.1,2.5,1.1,4.3c0,1.6-0.4,3.1-1.3,4.5c-0.9,1.4-2.3,2.5-4.1,3.4C346.6,89,344.2,89.4,341.4,89.4z
			"/>
	</g>
</g>
</svg>
