<?xml version="1.0" encoding="utf-8"?>
<!-- Generator: Adobe Illustrator 28.1.0, SVG Export Plug-In . SVG Version: 6.00 Build 0)  -->
<svg version="1.1" xmlns="http://www.w3.org/2000/svg" xmlns:xlink="http://www.w3.org/1999/xlink" x="0px" y="0px"
	 viewBox="0 0 336.8 66.3" style="enable-background:new 0 0 336.8 66.3;" xml:space="preserve">
<style type="text/css">
	.st0{fill:none;stroke:#000000;stroke-width:10;stroke-linecap:round;stroke-miterlimit:10;}
</style>
<g id="Capa_5">
	<g>
		<path d="M32.6,3.8c16.1,0,29.3,13.1,29.3,29.3S48.7,62.4,32.6,62.4S3.3,49.3,3.3,33.1S16.4,3.8,32.6,3.8 M32.6,2.8
			C15.9,2.8,2.3,16.4,2.3,33.1s13.6,30.3,30.3,30.3s30.3-13.6,30.3-30.3S49.3,2.8,32.6,2.8L32.6,2.8z"/>
	</g>
</g>
<g id="Capa_1">
	<path class="st0" d="M59.9,23.1c0-5.9-4.8-10.7-10.7-10.7s-10.7,4.8-10.7,10.7"/>
	<g>
		<line class="st0" x1="59.9" y1="22.7" x2="59.9" y2="55.4"/>
	</g>
</g>
<g id="Capa_3">
	<circle class="st0" cx="49.2" cy="43.9" r="10.7"/>
</g>
<g id="Capa_2">
	<path class="st0" d="M62.9,23.1c0-5.9,4.8-10.7,10.7-10.7c5.9,0,10.7,4.8,10.7,10.7"/>
	<g>
		<line class="st0" x1="62.9" y1="22.8" x2="62.9" y2="55.5"/>
	</g>
	<line class="st0" x1="62.9" y1="33.9" x2="73.6" y2="33.9"/>
</g>
<g id="Capa_4">
	<g>
		<path d="M98.8,53.4V19.8h12.6c2.8,0,5.3,0.5,7.3,1.4s3.6,2.2,4.7,3.9c1.1,1.7,1.7,3.8,1.7,6.2c0,2.4-0.6,4.4-1.7,6.1
			c-1.1,1.7-2.7,3-4.7,4c-2,0.9-4.5,1.4-7.3,1.4h-10.6l1.6-1.7v12.3H98.8z M102.3,41.4l-1.6-1.7h10.5c3.4,0,5.9-0.7,7.7-2.2
			c1.7-1.5,2.6-3.5,2.6-6.2c0-2.7-0.9-4.8-2.6-6.2c-1.7-1.5-4.3-2.2-7.7-2.2h-10.5l1.6-1.7V41.4z"/>
		<path d="M132.8,53.4V19.8h3.6v33.6H132.8z"/>
		<path d="M161.9,53.6c-2.5,0-4.9-0.4-7-1.3s-4-2-5.6-3.6c-1.6-1.5-2.8-3.3-3.7-5.4c-0.9-2.1-1.3-4.4-1.3-6.8c0-2.5,0.4-4.7,1.3-6.8
			c0.9-2.1,2.1-3.9,3.7-5.4s3.4-2.7,5.6-3.6c2.1-0.8,4.5-1.3,7-1.3c2.4,0,4.7,0.4,6.9,1.2c2.1,0.8,4,2,5.4,3.7l-2.3,2.3
			c-1.4-1.4-2.9-2.4-4.6-3c-1.7-0.6-3.5-0.9-5.4-0.9c-2,0-3.9,0.3-5.6,1c-1.7,0.7-3.2,1.7-4.5,2.9c-1.3,1.3-2.3,2.7-3,4.4
			s-1.1,3.5-1.1,5.5s0.4,3.9,1.1,5.5s1.7,3.2,3,4.4c1.3,1.3,2.8,2.2,4.5,2.9c1.7,0.7,3.6,1,5.6,1c1.9,0,3.7-0.3,5.4-1
			c1.7-0.6,3.2-1.7,4.6-3.1l2.3,2.3c-1.5,1.6-3.3,2.9-5.4,3.7C166.6,53.2,164.3,53.6,161.9,53.6z"/>
		<path d="M187.9,53.4V22.8h-11.8v-3.1h27.2v3.1h-11.8v30.5H187.9z"/>
		<path d="M221.8,53.6c-4.3,0-7.7-1.2-10.1-3.7c-2.5-2.5-3.7-6.1-3.7-10.9V19.8h3.6v19.1c0,4,0.9,6.9,2.7,8.8
			c1.8,1.9,4.3,2.8,7.6,2.8c3.3,0,5.8-0.9,7.6-2.8c1.8-1.9,2.7-4.8,2.7-8.8V19.8h3.5V39c0,4.8-1.2,8.5-3.7,10.9
			C229.4,52.4,226.1,53.6,221.8,53.6z"/>
		<path d="M246.2,53.4V19.8h12.6c2.8,0,5.3,0.5,7.3,1.4s3.6,2.2,4.7,3.9c1.1,1.7,1.7,3.8,1.7,6.2c0,2.4-0.6,4.4-1.7,6.1
			c-1.1,1.7-2.7,3-4.7,3.9s-4.5,1.4-7.3,1.4h-10.6l1.6-1.6v12.3H246.2z M249.8,41.4l-1.6-1.7h10.5c3.4,0,5.9-0.7,7.7-2.2
			c1.7-1.5,2.6-3.5,2.6-6.2c0-2.7-0.9-4.8-2.6-6.2c-1.7-1.5-4.3-2.2-7.7-2.2h-10.5l1.6-1.7V41.4z M269.2,53.4l-8.6-12.2h3.8
			l8.7,12.2H269.2z"/>
		<path d="M284.5,50.3h20.2v3.1H281V19.8h23v3.1h-19.5V50.3z M284.1,34.8h17.8v3h-17.8V34.8z"/>
		<path d="M322.3,53.6c-2.5,0-4.9-0.4-7.2-1.2c-2.3-0.8-4.1-1.9-5.3-3.1l1.4-2.7c1.2,1.2,2.8,2.1,4.8,2.9c2,0.8,4.1,1.2,6.3,1.2
			c2.1,0,3.8-0.3,5.2-0.8c1.3-0.5,2.3-1.2,2.9-2.1c0.6-0.9,0.9-1.9,0.9-3c0-1.3-0.4-2.4-1.1-3.2s-1.7-1.4-3-1.9
			c-1.2-0.5-2.6-0.9-4-1.2c-1.5-0.4-2.9-0.7-4.4-1.1c-1.5-0.4-2.8-0.9-4.1-1.6c-1.2-0.7-2.2-1.6-3-2.7c-0.8-1.1-1.1-2.6-1.1-4.3
			c0-1.7,0.4-3.2,1.3-4.6c0.9-1.4,2.2-2.5,4.1-3.4c1.8-0.8,4.2-1.3,7-1.3c1.9,0,3.8,0.3,5.6,0.8c1.9,0.5,3.5,1.3,4.8,2.2l-1.2,2.8
			c-1.4-1-3-1.7-4.6-2.1c-1.6-0.4-3.2-0.7-4.7-0.7c-2,0-3.7,0.3-5,0.8c-1.3,0.5-2.3,1.3-2.9,2.2c-0.6,0.9-0.9,1.9-0.9,3.1
			c0,1.3,0.4,2.4,1.1,3.2c0.8,0.8,1.7,1.4,3,1.9c1.2,0.4,2.6,0.8,4.1,1.2c1.5,0.4,2.9,0.7,4.4,1.2c1.5,0.4,2.8,1,4,1.6
			c1.2,0.7,2.2,1.5,3,2.6s1.1,2.5,1.1,4.3c0,1.6-0.4,3.1-1.3,4.5c-0.9,1.4-2.3,2.5-4.1,3.4C327.6,53.2,325.2,53.6,322.3,53.6z"/>
	</g>
</g>
</svg>
